<?xml version="1.0" encoding="UTF-8" standalone="no"?>
<svg
   fill="none"
   height="24"
   viewBox="0 0 24 24"
   width="24"
   version="1.1"
   id="svg4"
   sodipodi:docname="scanner.svg"
   inkscape:version="1.3.2 (1:1.3.2+202311252150+091e20ef0f)"
   xmlns:inkscape="http://www.inkscape.org/namespaces/inkscape"
   xmlns:sodipodi="http://sodipodi.sourceforge.net/DTD/sodipodi-0.dtd"
   xmlns="http://www.w3.org/2000/svg"
   xmlns:svg="http://www.w3.org/2000/svg">
  <defs
     id="defs4" />
  <sodipodi:namedview
     id="namedview4"
     pagecolor="#ffffff"
     bordercolor="#000000"
     borderopacity="0.25"
     inkscape:showpageshadow="2"
     inkscape:pageopacity="0.0"
     inkscape:pagecheckerboard="0"
     inkscape:deskcolor="#d1d1d1"
     inkscape:zoom="21"
     inkscape:cx="12.02381"
     inkscape:cy="12"
     inkscape:window-width="1366"
     inkscape:window-height="704"
     inkscape:window-x="0"
     inkscape:window-y="0"
     inkscape:window-maximized="1"
     inkscape:current-layer="svg4" />
  <path
     d="M 5.0000002,6 C 5.0000002,5.44772 5.4477202,5 6,5 H 8.0000002 C 8.55228,5 9,4.55228 9,4 9,3.44772 8.55228,3 8.0000002,3 H 6 C 4.3431502,3 3,4.34315 3,6 V 8 C 3,8.55228 3.44772,9 3.9999998,9 4.5522802,9 5.0000002,8.55228 5.0000002,8 Z"
     fill="#212121"
     id="path1"
     style="stroke-width:1.101;stroke-dasharray:none;fill:#ffffff;fill-opacity:1" />
  <path
     d="M5 18C5 18.5523 5.44772 19 6 19H8C8.55228 19 9 19.4477 9 20C9 20.5523 8.55228 21 8 21H6C4.34315 21 3 19.6569 3 18V16C3 15.4477 3.44772 15 4 15C4.55228 15 5 15.4477 5 16V18Z"
     fill="#212121"
     id="path2"
     style="stroke-width:1;stroke-dasharray:none;fill:#ffffff;fill-opacity:1;vector-effect:non-scaling-stroke;-inkscape-stroke:hairline" />
  <path
     d="M18 5C18.5523 5 19 5.44772 19 6V8C19 8.55228 19.4477 9 20 9C20.5523 9 21 8.55228 21 8V6C21 4.34315 19.6569 3 18 3H16C15.4477 3 15 3.44772 15 4C15 4.55228 15.4477 5 16 5H18Z"
     fill="#212121"
     id="path3"
     style="stroke-width:1;stroke-dasharray:none;fill:#ffffff;fill-opacity:1;vector-effect:non-scaling-stroke;-inkscape-stroke:hairline" />
  <path
     d="M19 18C19 18.5523 18.5523 19 18 19H16C15.4477 19 15 19.4477 15 20C15 20.5523 15.4477 21 16 21H18C19.6569 21 21 19.6569 21 18V16C21 15.4477 20.5523 15 20 15C19.4477 15 19 15.4477 19 16V18Z"
     fill="#212121"
     id="path4"
     style="stroke-width:1;stroke-dasharray:none;fill:#ffffff;fill-opacity:1;vector-effect:non-scaling-stroke;-inkscape-stroke:hairline" />
</svg>
